<svg width="46" height="41" viewBox="0 0 46 41" fill="none" xmlns="http://www.w3.org/2000/svg">
<path d="M6.72332 31.078L11.6733 33.702L40.9233 24.026V13.12C40.9233 11.808 40.2033 10.578 38.9433 10.004L24.8133 2.62399C23.5533 1.96799 22.0233 1.96799 20.8533 2.62399L6.72332 10.004C5.46332 10.66 4.74332 11.89 4.74332 13.12V27.88C4.74332 29.192 5.46332 30.422 6.72332 31.078Z" fill="#00C8E2"/>
<path d="M32.5533 7.298L25.2633 2.87C24.0933 2.132 22.5633 2.05 21.3033 2.624L6.72333 9.184C5.37333 9.84 4.56333 10.988 4.47333 12.3L4.29333 14.924L32.5533 7.298Z" fill="#00DFFC"/>
<path d="M39.3933 9.184L25.2633 1.804C23.7333 0.983995 21.8433 0.983995 20.4033 1.804L6.27332 9.184C4.74332 10.004 3.84332 11.48 3.84332 13.038V27.88C3.84332 29.438 4.74332 30.914 6.27332 31.734L20.4033 39.114C21.1233 39.524 22.0233 39.688 22.8333 39.688C23.6433 39.688 24.5433 39.524 25.2633 39.114L29.1333 37.064C29.5833 36.818 29.6733 36.326 29.4933 35.916C29.2233 35.506 28.6833 35.424 28.2333 35.588L24.3633 37.638C23.3733 38.13 22.2033 38.13 21.3033 37.638L7.17332 30.34C6.18332 29.848 5.64332 28.946 5.64332 27.88V13.12C5.64332 12.136 6.27332 11.152 7.17332 10.66L21.3033 3.28C22.2933 2.788 23.4633 2.788 24.3633 3.28L38.4933 10.66C39.4833 11.152 40.0233 12.054 40.0233 13.12V24.026C40.0233 24.518 40.4733 24.846 40.9233 24.846C41.3733 24.846 41.8233 24.436 41.8233 24.026V13.12C41.8233 11.48 40.9233 10.004 39.3933 9.184Z" fill="#494949"/>
<path d="M35.4333 12.792L23.8233 6.724C23.1933 6.396 22.3833 6.396 21.7533 6.724L10.2333 12.792C9.60332 13.12 9.24332 13.776 9.24332 14.432V26.65C9.24332 27.306 9.60332 27.962 10.2333 28.29L21.8433 34.358C22.2033 34.522 22.4733 34.604 22.8333 34.604C23.1933 34.604 23.5533 34.522 23.8233 34.358L35.4333 28.208C36.0633 27.88 36.4233 27.224 36.4233 26.568V14.432C36.5133 13.776 36.0633 13.12 35.4333 12.792ZM35.7033 26.568C35.7033 26.978 35.4333 27.388 35.0733 27.634L23.4633 33.702C23.0133 33.948 22.5633 33.948 22.1133 33.702L10.5033 27.634C10.0533 27.388 9.87332 26.978 9.87332 26.568V14.432C9.87332 14.022 10.1433 13.612 10.5033 13.366L16.4433 10.25L17.7033 11.398C17.3433 12.218 17.5233 13.202 18.2433 13.858C18.5133 14.104 18.7833 14.268 19.0533 14.35V22.468C18.5133 22.632 18.1533 22.96 17.7933 23.452C17.3433 24.19 17.3433 25.092 17.8833 25.83C18.8733 27.224 21.2133 27.224 22.2033 25.666C22.5633 25.092 22.6533 24.436 22.3833 23.862C22.1133 23.206 21.6633 22.796 21.1233 22.55V14.924C21.1233 14.76 21.3033 14.678 21.4833 14.842L24.5433 17.63C24.0933 18.614 24.4533 19.762 25.5333 20.418C26.3433 20.91 27.3333 20.91 28.1433 20.418C29.5833 19.598 29.6733 17.876 28.5933 16.892C27.8733 16.236 26.8833 16.072 25.9833 16.318L22.3833 13.038C22.6533 12.218 22.4733 11.316 21.7533 10.66C21.0333 10.004 20.0433 9.84 19.1433 10.086L18.2433 9.266L22.0233 7.298C22.2033 7.216 22.4733 7.134 22.6533 7.134C22.8333 7.134 23.1033 7.216 23.2833 7.298L34.8933 13.366C35.3433 13.612 35.5233 14.022 35.5233 14.432L35.7033 26.568Z" fill="#494949"/>
</svg>
