<svg width="50" height="50" viewBox="0 0 50 50" fill="none" xmlns="http://www.w3.org/2000/svg">
<path d="M43.7 12.8V20.3L42.4 20.8L41.3 21.2L39.7 21.8L38.6 22.2L33.6 24L30.4 25.2L27.2 26.4L23.5 27.8L11.4 32L10.3 32.4L8.60001 33L7.50001 33.4L6.20001 33.9V18.2L7.50001 17.7L8.60001 17.3L10.3 16.7L11.4 16.3L18.4 13.8L19.4 13.4L30.7 9.3L31 9.2L33.7 8.2L33.9 8L38.7 6.3H38.8L39.8 5.9V8.6C39.8 8.7 39.8 8.8 39.7 8.9V11.6H42.6C43.2 11.6 43.7 12.1 43.7 12.8Z" fill="#AFE55D"/>
<path d="M39.8 6.2V6.5L39 6.8L38.8 6.9L35.5 8L35.2 8.1L32.5 9.1L32.2 9.2L21 13.4L18.4 14.3L11.4 16.9L10.3 17.3L8.60001 17.9L7.50001 18.3L6.20001 18.8V12.8C6.20001 12.2 6.70001 11.7 7.40001 11.7H10.3V6.2C10.3 4.9 11.3 3.9 12.6 3.9H37.4C38.6 3.9 39.5 4.8 39.7 5.9C39.8 6 39.8 6.1 39.8 6.2Z" fill="#C3FF68"/>
<path d="M18.7 43.8C17.9 43.2 19.5 42.6 19.5 40V38C19.5 37.3 20.6 37.3 20.6 38C20.6 40.1 20.8 41.7 19.5 43.7C19.3 43.9 18.9 43.9 18.7 43.8ZM30.5 43.6C29.2 41.7 29.4 40.2 29.4 37.9C29.4 37.2 30.5 37.2 30.5 37.9C30.5 39.9 30.3 41.3 31.4 42.9C31.8 43.6 30.9 44.2 30.5 43.6ZM41.9 34.7H8.10001C7.80001 34.7 7.60001 34.5 7.60001 34.2V14C7.60001 13.7 7.80001 13.5 8.10001 13.5H10.3C11 13.5 11 14.6 10.3 14.6H8.70001V33.7H41.4V14.4H39.9C39.2 14.4 39.2 13.3 39.9 13.3H42C42.3 13.3 42.5 13.5 42.5 13.8V34.1C42.4 34.5 42.2 34.7 41.9 34.7ZM41.9 37.2C41.1 37.2 41.1 36 41.9 36C42.7 36 42.7 37.2 41.9 37.2ZM39.5 37.2C38.7 37.2 38.7 36 39.5 36C40.3 36 40.3 37.2 39.5 37.2ZM37 37.2C36.2 37.2 36.2 36 37 36C37.8 36 37.8 37.2 37 37.2Z" fill="#494949"/>
<path d="M39.7 8.7V33.9C39.7 34.6 38.6 34.6 38.6 33.9V9.2H11.4V33.7C11.4 34.4 10.3 34.4 10.3 33.7V8.5C10.4 8.3 10.6 8.1 10.8 8.1H39.1C39.5 8.1 39.7 8.4 39.7 8.7Z" fill="#494949"/>
<path d="M39.8 5.9C39.6 4.8 38.7 3.9 37.5 3.9H12.7C11.4 3.9 10.4 4.9 10.4 6.2V8.6C10.4 8.9 10.6 9.1 10.9 9.1H39.2C39.4 9.1 39.6 9 39.7 8.8C39.7 8.7 39.8 8.6 39.8 8.5V5.9ZM12.7 5H37.5C38.2 5 38.7 5.5 38.7 6.1V8H11.5V6.1C11.5 5.5 12 5 12.7 5Z" fill="#494949"/>
<path d="M13.5 6.6C13.5 7.4 14.7 7.4 14.7 6.6C14.6 5.8 13.5 5.8 13.5 6.6ZM15.6 6.6C15.6 7.4 16.8 7.4 16.8 6.6C16.7 5.8 15.6 5.8 15.6 6.6ZM17.7 6.6C17.7 7.4 18.9 7.4 18.9 6.6C18.8 5.8 17.7 5.8 17.7 6.6Z" fill="#494949"/>
<path d="M33.7 23.9C33.6 23.4 33.5 23 33.4 22.7C33.1 22.1 32.7 21.7 32.2 21.2C31.7 20.8 30.9 20.4 29.8 19.9C28.9 19.5 28.2 19.2 27.9 19C27.6 18.8 27.4 18.6 27.2 18.4C27.1 18.2 27 17.9 27 17.7C27 17.3 27.1 17 27.4 16.7C27.7 16.4 28.2 16.3 28.9 16.3C29.8 16.3 31 16.6 32.2 17.1L32.6 17.3L33.7 14.6L33.3 14.4C31.9 13.8 30.4 13.5 29 13.5C27.4 13.5 26.2 13.9 25.3 14.6C24.3 15.4 23.8 16.5 23.8 17.8C23.8 18.9 24.1 19.8 24.7 20.6C25.3 21.3 26.3 22 27.7 22.6C29.2 23.2 29.9 23.6 30.1 23.9C30.4 24.2 30.6 24.5 30.6 25V25.3C30.5 25.6 30.4 25.9 30.1 26.1C29.6 26.5 28.6 26.6 27.4 26.5C27 26.5 26.7 26.4 26.3 26.3C25.6 26.1 24.9 25.9 24.3 25.6L23.6 25V28.2L23.8 28.3C24.9 28.8 26.3 29.1 28 29.1C29.7 29.1 31.1 28.7 32.1 27.9C33.1 27.1 33.7 25.9 33.7 24.5V23.9ZM18.4 13.4V24.3C18.4 26.1 17.6 26.3 16.9 26.3C16.5 26.3 16.1 26.2 15.5 26.1L15 25.9V28.7L15.3 28.8C15.8 29 16.4 29.1 17.1 29.1C18.6 29.1 19.7 28.7 20.5 27.8C21.3 26.9 21.7 25.7 21.7 24.1V13.4H18.4Z" fill="#444444"/>
<path d="M36.8 5C37.6 5 38.3 5.5 38.7 6.1L38.8 6.2C38.9 6.4 38.9 6.5 39 6.7V9.4C39 9.5 39 9.6 38.9 9.7V11.5H42.6C43.3 11.5 43.8 12 43.8 12.6V37C43.8 37.7 43.2 38.2 42.6 38.2H30.2C30.2 39.9 30.1 41.2 31 42.6H34.1C34.4 42.6 34.6 42.8 34.6 43.1V44.9H41.8C42.1 44.9 42.3 45.1 42.3 45.4C42.3 45.7 42.1 45.9 41.8 45.9H9.10001C8.40001 45.9 8.40001 44.9 9.10001 44.9H15.4V43.1C15.4 42.8 15.6 42.6 15.9 42.6H19C19.3 42.1 19.8 41.3 19.8 39.9V38.3H7.40001C6.80001 38.3 6.20001 37.8 6.20001 37.2V12.8C6.20001 12.2 6.70001 11.7 7.40001 11.7H11.1V7.2C11.1 6.8 11.2 6.4 11.4 6.1C11.8 5.5 12.6 5 13.4 5H36.8ZM36.8 2.5H13.4C11.7 2.5 10.1 3.4 9.30001 4.9C8.90001 5.6 8.70001 6.4 8.70001 7.2V9.1H7.40001C5.40001 9.1 3.70001 10.7 3.70001 12.7V37.1C3.70001 39.1 5.30001 40.7 7.40001 40.7H14C13.4 41.1 13 41.7 12.9 42.4H9.10001C7.40001 42.4 6.10001 43.7 6.10001 45.4C6.10001 47.1 7.40001 48.4 9.10001 48.4H41.9C43.6 48.4 44.9 47 44.9 45.4C44.9 43.7 43.5 42.4 41.9 42.4H37C36.8 41.7 36.4 41.1 35.9 40.7H42.5C44.6 40.7 46.2 39 46.2 37V12.8C46.2 10.8 44.6 9.2 42.5 9.2H41.4V7.2C41.4 6.9 41.4 6.6 41.3 6.3C41.2 5.9 41.1 5.6 40.9 5.2V5.1C40.9 5 40.8 4.9 40.7 4.8C40 3.4 38.5 2.5 36.8 2.5Z" fill="#494949"/>
</svg>
