<svg width="66" height="66" viewBox="0 0 66 66" fill="none" xmlns="http://www.w3.org/2000/svg">
<rect width="66" height="66" rx="33" fill="#333647"/>
<path d="M54.9 16.8V25L48 27.5L47.3 27.7L45.2 28.5L42.6 29.4L42 29.6L39.6 30.5L38.7 30.8L37.8 31.1L34.3 32.4L31.3 33.5L29 34.5L26.5 35.4L22 37.1L20.6 37.6L19.7 37.9L18.2 38.4L11.1 41V26.7L42.7 15.2H53.2C54.2 15.2 54.9 15.9 54.9 16.8Z" fill="#E589EF"/>
<path d="M18.2 32.5V36.2L16.1 32.5H14.7V38.5H16.1V34.8L18.2 38.5H19.6V32.5H18.2ZM24.7 33.6V32.5H20.6V38.5H24.7V37.4H22V36H24.3V34.9H22V33.7L24.7 33.6ZM28.4 35.5L28.9 34.5L30 32.5H28.4L27.4 34.5L26.4 32.5H24.8L26.4 35.4V35.5L24.7 38.5H26.4L27.4 36.5L28.4 38.5H30L28.4 35.5ZM30.3 32.5V33.6H32.1V38.5H33.5V33.6H35.3V32.5H30.3ZM38.8 34.6V37.3C38.8 37.5 38.6 37.7 38.4 37.7C38.2 37.7 38 37.5 38 37.3H37C37 37.5 37 37.7 37.2 38C37.6 38.6 38.6 38.8 39.3 38.3C39.8 37.9 39.8 37.2 39.8 37.1V34.4H38.8V34.6ZM42.7 36.5C42.5 36.4 42.3 36.3 42 36.2C41.7 36.1 41.5 36 41.4 36C41.3 35.9 41.2 35.8 41.2 35.7C41.2 35.6 41.2 35.5 41.3 35.4C41.4 35.3 41.5 35.3 41.7 35.3C41.9 35.3 42 35.3 42.1 35.4C42.2 35.5 42.2 35.6 42.2 35.8H43.1C43.1 35.6 43 35.3 42.9 35.2C42.8 35.1 42.6 34.9 42.4 34.8C42.3 34.8 41.5 34.4 40.8 34.8C40.7 34.9 40.1 35.2 40.1 35.8C40.1 36.3 40.6 36.7 40.9 36.8C40.9 36.8 41.1 36.9 41.5 37C41.9 37.1 42 37.2 42.1 37.3C42.2 37.5 42 37.6 42 37.6C41.8 37.8 41.4 37.8 41.1 37.7C41 37.6 41 37.6 41 37.5C41 37.4 40.9 37.3 40.9 37.2H40V37.4C40 37.4 40 37.6 40.2 37.9C40.4 38.2 40.7 38.5 41.3 38.6C41.9 38.7 42.3 38.5 42.5 38.4C42.7 38.3 42.9 38.2 43.1 37.9C43.1 37.9 43.4 37.3 43.2 36.9C43 36.7 42.8 36.6 42.7 36.5Z" fill="#494949"/>
<path d="M35.4 38.5C35.6761 38.5 35.9 38.2761 35.9 38C35.9 37.7239 35.6761 37.5 35.4 37.5C35.1239 37.5 34.9 37.7239 34.9 38C34.9 38.2761 35.1239 38.5 35.4 38.5Z" fill="#494949"/>
<path d="M44.2 15.2L11.1 27.3V16.8C11.1 15.9 11.8 15.2 12.7 15.2H44.2Z" fill="#F799FF"/>
<path d="M54.9 16.8V43.6C54.9 44.5 54.2 45.2 53.3 45.2H12.7C11.8 45.2 11.1 44.5 11.1 43.6V16.8C11.1 15.9 11.8 15.2 12.7 15.2H53.2C54.2 15.2 54.9 15.9 54.9 16.8V16.8Z" stroke="#494949" stroke-width="2.5" stroke-miterlimit="10" stroke-linecap="round" stroke-linejoin="round"/>
<path d="M11.1 41.1H54.9" stroke="#494949" stroke-miterlimit="10" stroke-linecap="round" stroke-linejoin="round"/>
<path d="M42.7 50.8H23.3M36.2 45.2L38.7 50.8M29.8 45.2L27.3 50.8" stroke="#494949" stroke-width="2.5" stroke-miterlimit="10" stroke-linecap="round" stroke-linejoin="round"/>
<path d="M47.5 29.3C45.4 29.3 43.7 27.6 43.7 25.5C43.7 25.1 43.7 24.8 43.8 24.5C44.2 22.8 45.8 21.7 47.5 21.7C48.3 21.7 49.1 22 49.6 22.4C50.6 23.1 51.3 24.2 51.3 25.6C51.5 27.6 49.8 29.3 47.5 29.3ZM52.1 25.5C52.1 24.4 51.7 23.3 51 22.5C50.2 21.5 48.9 20.9 47.5 20.9C46.6 20.9 45.7 21.2 45 21.6C44.9 21.3 44.7 20.9 44.5 20.6L44.9 19.9L43.3 18.3L42.6 18.7C42.1 18.4 41.6 18.2 41 18L40.7 17.2H38.4L38.2 18C37.6 18.1 37.1 18.4 36.6 18.7L35.9 18.3L34.3 19.9L34.7 20.6C34.4 21.1 34.2 21.6 34 22.2L33.2 22.5V24.8L34 25.1C34.1 25.7 34.4 26.2 34.7 26.7L34.3 27.4L35.9 29L36.6 28.6C37.1 28.9 37.6 29.1 38.2 29.3L38.5 30.1H40.8L41.1 29.3C41.7 29.2 42.2 28.9 42.7 28.6L43.4 29L44 28.4C44.5 29.1 45.2 29.6 46 29.8V30.7H45.4V31.3H46V34.7C46 35.5 46.7 36.2 47.5 36.2C48.3 36.2 49 35.5 49 34.7V31.3H49.6V30.7H49V29.8C50.8 29.2 52.1 27.5 52.1 25.5ZM43.2 28.2L42.5 27.9L42.4 28C41.9 28.3 41.3 28.6 40.7 28.7H40.5L40.3 29.4H38.9L38.7 28.7H38.5C37.9 28.6 37.3 28.3 36.8 28L36.7 27.9L36 28.2L35.8 28L35 27.3L35.3 26.6L35.2 26.5C34.9 26 34.6 25.4 34.5 24.8V24.6L33.8 24.4V23L34.5 22.8V22.6C34.6 22 34.9 21.4 35.2 20.9L35.3 20.8L35 20.1L36 19.1L36.7 19.4L36.8 19.3C37.3 19 37.9 18.7 38.5 18.6H38.7L38.9 17.9H40.3L40.5 18.6H40.7C41.3 18.7 41.9 19 42.4 19.3L42.5 19.4L43.2 19.1L43.9 19.8L44.1 20L44.2 20.1L43.9 20.8L44 20.9L44.6 22.1L44.1 22.6C43.9 21.8 43.4 21 42.8 20.4L42.6 20.2C41.8 19.5 40.7 19.1 39.6 19.1C37.3 19.1 35.4 20.8 35.1 23V23.7C35.1 25.3 36 26.8 37.3 27.6C38 28 38.8 28.3 39.7 28.3C41.1 28.3 42.3 27.7 43.2 26.7C43.3 27.1 43.5 27.6 43.7 27.9L43.2 28.2ZM43 25.7C42.7 26.2 42.3 26.6 41.8 26.9V25.8C41.8 25.7 41.9 25.6 41.9 25.6C42.1 25.3 42.4 25.2 42.7 25.2H43V25.7ZM35.7 23V22.8C35.7 22.6 35.8 22.4 35.9 22.2H36C36.3 22.2 36.5 22.3 36.8 22.4C36.9 22.4 36.9 22.5 37 22.5C37.2 22.6 37.3 22.8 37.4 23C37.6 23.4 37.9 23.6 38.4 23.6C38.6 23.6 38.8 23.8 38.8 24V24.5C38.8 25 39.2 25.4 39.7 25.4C39.9 25.4 40 25.5 40 25.7C40 25.9 39.9 26 39.7 26C39 26 38.4 26.5 38.2 27.1V27.2C38.2 27.2 38.1 27.2 38.1 27.1C36.7 26.5 35.8 25.1 35.8 23.5C35.7 23.4 35.7 23.2 35.7 23ZM39.2 26.8C39.3 26.7 39.4 26.7 39.5 26.7H39.6C39.9 26.7 40.1 26.6 40.3 26.4C40.5 26.2 40.6 26 40.6 25.8C40.6 25.3 40.2 24.9 39.7 24.9C39.5 24.9 39.4 24.8 39.4 24.6V24.1C39.4 23.5 38.9 23.1 38.4 23.1C38.2 23.1 38.1 23 38 22.8C37.9 22.6 37.8 22.4 37.7 22.3C37.7 22.2 37.6 22.2 37.6 22.1C37.3 21.8 36.9 21.6 36.4 21.5C36.8 20.9 37.4 20.4 38 20L38.3 20.7C38.5 21.1 38.8 21.3 39.2 21.4H39.7C39.9 21.4 40.1 21.6 40.2 21.8C40.3 22.3 40.8 22.6 41.3 22.6H41.4C41.6 22.6 41.8 22.7 41.8 22.9L42 23.2C42.2 23.6 42.6 23.8 43 23.8H43.4C43.3 24 43.3 24.2 43.2 24.4H42.9C42.4 24.4 41.9 24.7 41.6 25.1C41.4 25.3 41.3 25.6 41.3 25.9V27.1C40.8 27.3 40.3 27.4 39.8 27.4C39.5 27.4 39.2 27.4 38.9 27.3C38.8 27.2 38.9 27 39.2 26.8ZM43.5 23.4H42.9C42.7 23.4 42.5 23.3 42.5 23.1L42.3 22.8C42.1 22.4 41.7 22.2 41.3 22.2H41.2C41 22.2 40.8 22 40.7 21.8C40.7 21.6 40.5 21.4 40.4 21.3C40.3 21.2 40.3 21.2 40.2 21.2C40 21.1 39.8 21 39.6 21H39.3C39.1 21 38.9 20.9 38.8 20.7L38.5 20C38.9 19.9 39.2 19.8 39.6 19.8C40.5 19.8 41.3 20.1 41.9 20.6C42 20.6 42 20.7 42.1 20.7C42.9 21.3 43.5 22.2 43.5 23.4C43.5 23.3 43.5 23.3 43.5 23.4ZM48.5 34.6C48.5 35.1 48.1 35.5 47.6 35.5C47.1 35.5 46.7 35.1 46.7 34.6V31.2H48.5V34.6ZM48.5 30.7H46.7V30C47 30.1 47.3 30.1 47.6 30.1C47.9 30.1 48.2 30.1 48.5 30V30.7Z" fill="#444444"/>
</svg>
