<svg width="56" height="48" viewBox="0 0 56 48" fill="none" xmlns="http://www.w3.org/2000/svg">
<path d="M51.632 20.832C40.656 24.288 23.52 29.664 12.544 33.12L12.88 31.392C7.28 29.376 2.24 27.648 3.136 22.656V22.368C15.792 18.432 30.24 13.824 43.008 9.888C43.008 10.272 43.12 10.656 43.12 10.944C43.232 12.768 43.008 14.496 42.56 16.32C45.92 17.28 49.392 18.528 51.632 20.832Z" fill="#71BAC0"/>
<path d="M43.008 10.368C30.352 14.304 15.68 18.912 3.024 22.944C3.024 22.848 3.024 22.752 3.136 22.656V22.368H3.248C5.04 19.2 9.072 17.76 12.88 16.512C11.648 12.288 11.76 4.992 17.808 4.8C21.616 4.704 24.976 6.816 27.776 8.928C33.04 5.472 42.784 1.536 43.008 10.368Z" fill="#7ED0D6"/>
<path d="M4.032 26.784C3.024 25.536 2.576 24.096 3.136 22.656C5.6 17.856 12.544 16.416 18.144 15.36M4.032 26.784C6.496 28.896 9.632 30.624 14.224 31.776M43.568 31.296C44.576 31.008 45.584 30.624 46.592 30.24C48.832 29.28 51.072 28.128 52.304 26.304C52.416 26.208 52.416 26.016 52.528 25.92C55.104 20.736 47.264 17.568 42.56 16.32C41.664 16.128 40.88 15.936 39.984 15.744" stroke="#505050" stroke-miterlimit="10" stroke-linecap="round" stroke-linejoin="round"/>
<path d="M14.784 26.016C12.88 30.624 10.416 37.92 14.336 41.856C20.832 46.272 30.24 37.92 33.824 33.312M27.888 9.024C43.904 -1.536 45.024 10.56 41.216 21.024M42.56 40.8C45.136 37.248 43.12 26.112 40.208 23.904M24.752 36.096C31.696 42.24 38.528 45.888 42.56 40.8" stroke="#505050" stroke-miterlimit="10" stroke-linecap="round" stroke-linejoin="round"/>
<path d="M13.776 19.584C9.072 9.024 15.12 -1.152 27.776 8.928C29.568 10.272 31.248 11.808 32.816 13.536" stroke="#505050" stroke-miterlimit="10" stroke-linecap="round" stroke-linejoin="round"/>
<path d="M18.704 4.896C21.392 4.896 24.64 6.144 27.776 8.928H28C31.696 6.336 35.056 5.088 37.632 5.088C42.112 5.088 44.464 8.928 42.56 16.416C46.816 17.664 52.752 19.584 53.088 24C52.864 28.512 47.04 29.664 43.568 31.68C44.576 39.456 41.664 43.104 37.408 43.104C34.72 43.104 31.36 41.664 28 38.976C24.528 41.856 21.28 43.2 18.48 43.2C13.664 43.2 10.752 38.88 12.88 31.488C-0.784 27.936 0.56 19.008 13.44 16.608C10.08 9.504 13.44 4.896 18.704 4.896ZM18.704 2.976C15.68 2.976 13.104 4.128 11.536 6.144C9.744 8.448 9.408 11.616 10.528 15.168C4.704 16.8 1.12 19.968 0.896 23.616C0.784 27.36 4.256 30.72 10.304 32.64C9.52 36.768 10.08 40.128 12.208 42.336C13.776 43.968 16.016 44.928 18.592 44.928C21.616 44.928 24.864 43.68 28.112 41.376C31.36 43.68 34.496 44.832 37.408 44.832C39.648 44.832 41.664 44.064 43.12 42.72C45.36 40.608 46.256 37.152 45.92 32.544C46.368 32.256 46.928 32.064 47.488 31.776C50.848 30.24 55.104 28.32 55.328 23.904V23.712C54.88 18.624 49.168 16.32 45.136 14.976C45.92 10.656 45.36 7.296 43.456 5.28C42.112 3.84 40.096 3.072 37.744 3.072C34.944 3.072 31.584 4.224 28.112 6.432C25.088 4.224 21.84 2.976 18.704 2.976Z" fill="#505050"/>
<path d="M21.504 26.784C21.392 29.472 19.6 28.704 17.808 28.416V31.104C27.888 34.176 24.528 21.12 25.088 16.704H21.504V26.784ZM37.856 25.344C37.072 23.52 33.6 22.848 31.808 21.888C28.56 19.008 34.832 18.816 37.072 20.16L38.192 17.568C33.264 14.88 24.192 17.664 28.336 23.136C28.896 24.192 33.6 25.536 34.272 26.208C36.736 29.664 29.344 28.8 27.216 27.456V30.432C31.472 32.736 40.544 30.912 37.856 25.344Z" fill="#444444"/>
</svg>
